<?xml version="1.0" encoding="utf-8"?>
<!-- Generator: Adobe Illustrator 23.0.4, SVG Export Plug-In . SVG Version: 6.00 Build 0)  -->
<svg version="1.1" id="Layer_1" xmlns="http://www.w3.org/2000/svg" xmlns:xlink="http://www.w3.org/1999/xlink" x="0px" y="0px"
	 viewBox="0 0 32 32" style="enable-background:new 0 0 32 32;" xml:space="preserve">
<style type="text/css">
	.st0{fill:#324D5B;}
	.st1{fill:#E2574C;}
	.st2{fill:#CB4E44;}
	.st3{fill:#2D4552;}
	.st4{fill:#E4E7E7;}
	.st5{fill:#D8DBDB;}
	.st6{fill:#3DB39E;}
	.st7{fill:#3AAA96;}
	.st8{fill:#FFFFFF;}
	.st9{fill:#F2F2F2;}
	.st10{fill:#2F4956;}
</style>
<path class="st0" d="M16,25.9c-1.7,0-3,1.4-3,3s1.4,3,3,3s3-1.4,3-3S17.7,25.9,16,25.9z M24,23.9c-1.7,0-3,1.4-3,3s1.4,3,3,3
	s3-1.4,3-3S25.7,23.9,24,23.9z M8,23.9c-1.7,0-3,1.4-3,3s1.4,3,3,3s3-1.4,3-3S9.7,23.9,8,23.9z"/>
<path class="st1" d="M6.8,16.2c5.1-3.1,13.3-3.1,18.4,0s5.1,8.2,0,11.3c-5.1,3.1-13.3,3.1-18.4,0S1.7,19.4,6.8,16.2z"/>
<path class="st2" d="M8.1,26.8c-4.9-3-5.1-7.9-0.5-11c-0.2,0.1-0.5,0.3-0.7,0.4c-5.1,3.1-5.1,8.2,0,11.3c5.1,3.1,13.3,3.1,18.4,0
	c0.2-0.1,0.4-0.2,0.5-0.3C20.6,29.9,12.9,29.8,8.1,26.8z"/>
<path class="st0" d="M4.7,10.7c6.3-3.7,16.4-3.7,22.6,0s6.3,9.7,0,13.4s-16.4,3.7-22.6,0S-1.6,14.4,4.7,10.7z"/>
<path class="st3" d="M28.3,23.1c-6.3,3.7-16.4,3.7-22.6,0c-5-3-6-7.5-3-11c-4.2,3.7-3.6,8.8,1.9,12c6.3,3.7,16.4,3.7,22.6,0
	c1.2-0.7,2.2-1.5,2.9-2.4C29.7,22.2,29.1,22.7,28.3,23.1z"/>
<path class="st4" d="M16,2.9c5.5,0,10,4.5,10,10s-4.5,8-10,8s-10-2.5-10-8S10.5,2.9,16,2.9z"/>
<path class="st5" d="M6,12.9c0,5.5,4.5,8,9.9,8H16v-18C10.5,2.9,6,7.4,6,12.9z"/>
<path class="st6" d="M16,20.9c2.2,0,4.3-0.4,6-1.3v-6.7c0-3.3-2.7-6-6-6s-6,2.7-6,6v6.7C11.7,20.5,13.8,20.9,16,20.9z"/>
<path class="st7" d="M10,12.9v6.7c1.7,0.9,3.7,1.3,5.9,1.3H16v-14C12.7,6.9,10,9.6,10,12.9z"/>
<path class="st8" d="M16,10.9c1.7,0,3,1.4,3,3s-1.4,3-3,3s-3-1.4-3-3S14.4,10.9,16,10.9z"/>
<path class="st9" d="M16,10.9c-1.7,0-3,1.4-3,3s1.4,3,3,3V10.9z"/>
<path class="st0" d="M16,12.4c0.8,0,1.5,0.7,1.5,1.5s-0.7,1.5-1.5,1.5c-0.8,0-1.5-0.7-1.5-1.5S15.2,12.4,16,12.4z"/>
<path class="st10" d="M16,12.4c-0.8,0-1.5,0.7-1.5,1.5s0.7,1.5,1.5,1.5V12.4z"/>
</svg>
